# Blender v2.93.1 OBJ File: ''
# www.blender.org
o Plane
v -0.002507 0.005938 -0.097056
v 1.297684 0.005938 -0.097056
v -0.002507 2.005939 -0.097056
v 1.297684 2.005939 -0.097056
v -0.002507 2.005939 -0.097056
v -0.002507 0.005938 -0.097056
v -0.002507 2.005939 0.102944
v -0.002507 0.005938 0.102944
v 1.297493 2.005939 0.102944
v 1.297493 0.005938 0.102944
v -1.202507 2.005939 -0.097056
v -1.202507 2.005939 0.102944
v -1.202507 0.005938 -0.097056
v -1.202507 0.005938 0.102944
v -2.602507 2.005939 -0.097056
v -2.602507 2.005939 0.102944
v -2.602507 0.005938 -0.097056
v -2.602507 0.005938 0.102944
v -0.002507 2.205938 -0.097056
v 1.297684 2.205938 -0.097056
v -0.002507 2.205938 -0.097056
v -0.002507 2.205938 0.102944
v 1.297493 2.205938 0.102944
v -1.202507 2.205938 -0.097056
v -1.202507 2.205938 0.102944
v -2.602507 2.205938 -0.097056
v -2.602507 2.205938 0.102944
vt 1.000000 0.000000
vt 0.000000 1.000000
vt 0.000000 0.000000
vt 0.000000 1.000000
vt 0.000000 0.000000
vt 0.000000 1.000000
vt 0.000000 0.000000
vt 0.000000 0.000000
vt 0.000000 1.000000
vt 0.000000 1.000000
vt 0.000000 1.000000
vt 0.000000 1.000000
vt 0.000000 1.000000
vt 0.000000 1.000000
vt 0.000000 1.000000
vt 0.000000 1.000000
vt 1.000000 1.000000
vt 0.000000 1.000000
vt 0.000000 1.000000
vt 0.000000 1.000000
vt 0.000000 1.000000
vt 0.000000 1.000000
vt 0.000000 1.000000
vt 0.000000 1.000000
vt 1.000000 1.000000
vt 0.000000 1.000000
vt 0.000000 1.000000
vn 0.0000 -0.0000 1.0000
vn 1.0000 0.0000 0.0000
vn 0.0000 0.0000 -1.0000
vn 0.0000 1.0000 0.0000
vn -1.0000 0.0000 0.0000
s off
f 2/1/1 3/2/1 1/3/1
f 1/3/1 5/4/1 6/5/1
f 6/5/2 7/6/2 8/7/2
f 7/6/3 10/8/3 8/7/3
f 5/4/4 12/9/4 7/6/4
f 11/10/5 14/11/5 12/9/5
f 11/10/1 17/12/1 13/13/1
f 14/11/3 16/14/3 12/9/3
f 11/10/1 26/15/1 15/16/1
f 4/17/1 19/18/1 3/2/1
f 12/9/3 22/19/3 7/6/3
f 16/14/3 25/20/3 12/9/3
f 7/6/3 23/21/3 9/22/3
f 5/4/1 24/23/1 11/10/1
f 2/1/1 4/17/1 3/2/1
f 1/3/1 3/2/1 5/4/1
f 6/5/2 5/4/2 7/6/2
f 7/6/3 9/22/3 10/8/3
f 5/4/4 11/10/4 12/9/4
f 11/10/5 13/13/5 14/11/5
f 11/10/1 15/16/1 17/12/1
f 14/11/3 18/24/3 16/14/3
f 11/10/1 24/23/1 26/15/1
f 4/17/1 20/25/1 19/18/1
f 12/9/3 25/20/3 22/19/3
f 16/14/3 27/26/3 25/20/3
f 7/6/3 22/19/3 23/21/3
f 5/4/1 21/27/1 24/23/1
