# Blender v2.93.1 OBJ File: 'untitled.blend'
# www.blender.org
mtllib arch.mtl
o Plane
v -0.002507 0.005938 -0.097056
v 1.297684 0.005938 -0.097056
v -0.002507 2.005939 -0.097056
v 1.297684 2.005939 -0.097056
v -0.002507 2.005939 -0.097056
v -0.002507 0.005938 -0.097056
v -0.002507 2.005939 0.102944
v -0.002507 0.005938 0.102944
v 1.297493 2.005939 0.102944
v 1.297493 0.005938 0.102944
v -1.202507 2.005939 -0.097056
v -1.202507 2.005939 0.102944
v -1.202507 0.005938 -0.097056
v -1.202507 0.005938 0.102944
v -2.602507 2.005939 -0.097056
v -2.602507 2.005939 0.102944
v -2.602507 0.005938 -0.097056
v -2.602507 0.005938 0.102944
v -0.002507 2.205938 -0.097056
v 1.297684 2.205938 -0.097056
v -0.002507 2.205938 -0.097056
v -0.002507 2.205938 0.102944
v 1.297493 2.205938 0.102944
v -1.202507 2.205938 -0.097056
v -1.202507 2.205938 0.102944
v -2.602507 2.205938 -0.097056
v -2.602507 2.205938 0.102944
vt 0.729207 0.541667
vt 0.458333 0.958333
vt 0.458333 0.541667
vt 0.770873 0.541667
vt 0.770873 0.541667
vt 0.770873 0.541667
vt 0.958333 0.000000
vt 0.916667 0.416667
vt 0.916667 0.000000
vt 0.416667 0.541667
vt 0.000000 0.812500
vt 0.000000 0.541667
vt 0.812540 0.541667
vt 0.770873 0.791667
vt 0.770873 0.541667
vt 0.729207 0.958333
vt 0.770873 0.541667
vt 0.770873 0.958333
vt 0.500000 0.291667
vt 0.916667 0.000000
vt 0.916667 0.291667
vt 0.000000 0.291667
vt 0.416667 0.000000
vt 0.416667 0.291667
vt 0.458333 0.000000
vt 0.500000 0.000000
vt 0.729206 0.958333
vt 0.458333 1.000000
vt 0.458333 0.541667
vt 0.458333 0.291667
vt 0.458333 0.812500
vt 0.416667 0.812500
vt 0.500000 0.541667
vt 0.458333 0.291667
vt 0.770873 0.541667
vt 0.958333 0.416667
vt 0.812540 0.791667
vt 0.729207 0.541667
vt 0.000000 0.000000
vt 0.729206 1.000000
vt 0.458333 0.000000
vt 0.458333 0.541667
vn 0.0000 -0.0000 1.0000
vn 1.0000 0.0000 0.0000
vn 0.0000 0.0000 -1.0000
vn 0.0000 1.0000 0.0000
vn -1.0000 0.0000 0.0000
usemtl None
s off
f 2/1/1 3/2/1 1/3/1
f 1/4/1 5/5/1 6/6/1
f 6/7/2 7/8/2 8/9/2
f 7/10/3 10/11/3 8/12/3
f 5/13/4 12/14/4 7/15/4
f 11/16/5 14/17/5 12/18/5
f 11/19/1 17/20/1 13/21/1
f 14/22/3 16/23/3 12/24/3
f 11/19/1 26/25/1 15/26/1
f 4/27/1 19/28/1 3/2/1
f 12/24/3 22/29/3 7/10/3
f 16/23/3 25/30/3 12/24/3
f 7/10/3 23/31/3 9/32/3
f 5/33/1 24/34/1 11/19/1
f 2/1/1 4/27/1 3/2/1
f 1/4/1 3/35/1 5/5/1
f 6/7/2 5/36/2 7/8/2
f 7/10/3 9/32/3 10/11/3
f 5/13/4 11/37/4 12/14/4
f 11/16/5 13/38/5 14/17/5
f 11/19/1 15/26/1 17/20/1
f 14/22/3 18/39/3 16/23/3
f 11/19/1 24/34/1 26/25/1
f 4/27/1 20/40/1 19/28/1
f 12/24/3 25/30/3 22/29/3
f 16/23/3 27/41/3 25/30/3
f 7/10/3 22/29/3 23/31/3
f 5/33/1 21/42/1 24/34/1
